PathFileType	4	(X/Y/Z)	C:\Users\Basilio\Documents\Thesis Gigler\squatting_fais\c3dfiles\038\SJ_pre4\markers_experimental.trc
DataRate	CameraRate	NumFrames	NumMarkers	Units	OrigDataRate	OrigDataStartFrame	OrigNumFrames
200.000000	200.000000	4	61	mm	200.000000	250	2007
Frame#	Time	FHD			LBHD			RBHD			C7			T10			CLAV			LSHO			LUUPA			LMUPA			LDUPA			LLEP			LMEP			LRAD			LUL			LRFIN			RSHO			RUPA1			RMUPA			RDUPA			RLEP			RMEP			RRAD			RUL			RUFIN			LASI			RASI			USACR			LSACR			RSACR			LTHI1			LTHI2			LTHI3			LTHI4			LLFC			LMFC			LTIB1			LTIB2			LTIB3			LTIB4			LLMAL			LMMAL			LHEE			LMT1			LMT2			LMT5			RTHI			RTHI2			RTHI3			RTHI4			RLFC			RMFC			RTIB1			RTIB2			RTIB3			RTIB4			RLMAL			RMMAL			RHEE			RMT1			RMT2			RMT5			
		X1	Y1	Z1	X2	Y2	Z2	X3	Y3	Z3	X4	Y4	Z4	X5	Y5	Z5	X6	Y6	Z6	X7	Y7	Z7	X8	Y8	Z8	X9	Y9	Z9	X10	Y10	Z10	X11	Y11	Z11	X12	Y12	Z12	X13	Y13	Z13	X14	Y14	Z14	X15	Y15	Z15	X16	Y16	Z16	X17	Y17	Z17	X18	Y18	Z18	X19	Y19	Z19	X20	Y20	Z20	X21	Y21	Z21	X22	Y22	Z22	X23	Y23	Z23	X24	Y24	Z24	X25	Y25	Z25	X26	Y26	Z26	X27	Y27	Z27	X28	Y28	Z28	X29	Y29	Z29	X30	Y30	Z30	X31	Y31	Z31	X32	Y32	Z32	X33	Y33	Z33	X34	Y34	Z34	X35	Y35	Z35	X36	Y36	Z36	X37	Y37	Z37	X38	Y38	Z38	X39	Y39	Z39	X40	Y40	Z40	X41	Y41	Z41	X42	Y42	Z42	X43	Y43	Z43	X44	Y44	Z44	X45	Y45	Z45	X46	Y46	Z46	X47	Y47	Z47	X48	Y48	Z48	X49	Y49	Z49	X50	Y50	Z50	X51	Y51	Z51	X52	Y52	Z52	X53	Y53	Z53	X54	Y54	Z54	X55	Y55	Z55	X56	Y56	Z56	X57	Y57	Z57	X58	Y58	Z58	X59	Y59	Z59	X60	Y60	Z60	X61	Y61	Z61	

251	1.25	-108.7721252441407	1649.49755859375	-872.4827270507815	-263.4672241210938	1685.462158203125	-945.8067626953127	-272.7039794921876	1676.506103515625	-800.4917602539065	-402.465545654297	1533.331909179688	-873.2788085937502	-431.3128051757814	1237.714721679688	-877.1774902343752	-271.4048156738282	1474.027221679688	-883.794616699219	-334.3193664550782	1525.140625	-1046.163940429688	-380.9240722656251	1354.393432617188	-1216.24560546875	-335.1100769042969	1333.579223632813	-1210.106201171875	-360.5328369140626	1297.583374023438	-1252.268920898438	-339.3861083984376	1238.677978515625	-1270.354858398438	-408.0814514160157	1200.694091796875	-1242.031005859375	-267.1289062500001	1041.171264648438	-1067.737182617188	-219.2642974853516	1015.275695800781	-1117.696411132813	-249.7232513427735	997.8748779296877	-1008.986206054688	-313.4924621582032	1503.765502929688	-715.2356567382814	-302.3174438476563	1342.19091796875	-557.7221679687501	-277.9771118164063	1303.593994140625	-575.3131103515626	-294.1734313964844	1283.702392578125	-521.1320190429689	-277.0559692382813	1210.907592773438	-499.5806884765626	-356.9558715820313	1184.826416015625	-500.5040893554689	-272.6145935058594	990.0391235351565	-668.0463256835939	-212.7815399169922	970.0781250000002	-635.2031860351564	-242.6546936035157	972.2349243164065	-734.0198974609376	-265.7925720214844	1042.967163085938	-1005.142578125	-266.9400024414063	1045.864868164063	-752.9607543945314	-434.8135986328126	1100.279174804688	-880.4155883789065	-448.6141662597657	1070.929321289063	-908.009460449219	-446.0337219238282	1069.862548828125	-850.9426879882815	-331.3379516601563	729.9913940429689	-1082.21044921875	-308.9753417968751	647.9903564453126	-1079.1279296875	-264.3600463867188	646.6334838867189	-1056.16796875	-343.3280944824219	600.3237915039064	-1066.670288085938	-342.2748718261719	538.3306274414064	-1064.454956054688	-333.9946594238282	514.4231567382814	-946.8624267578127	-330.6905517578126	340.0600891113282	-1018.656555175781	-377.0352478027344	311.4383850097657	-1089.373901367188	-343.4949645996094	299.3135986328126	-1060.724365234375	-365.0417785644532	219.2279357910157	-1041.883544921875	-464.9790954589845	97.69655609130862	-1079.55224609375	-421.6696166992189	101.6110229492188	-1009.580078125	-509.493621826172	51.52965927124025	-1028.58251953125	-299.6327819824219	44.4394760131836	-1052.018798828125	-300.4571228027344	48.82252120971681	-1102.298583984375	-347.4119262695313	32.24566650390626	-1143.88818359375	-331.0896911621094	782.7109985351565	-690.4746093750001	-298.8631286621094	723.2519531250001	-685.3948974609376	-266.4184875488282	722.3851928710939	-693.3664550781251	-335.2102966308594	646.3966064453126	-701.9647827148439	-331.3757324218751	512.4125366210939	-709.9586791992189	-335.8936767578126	509.5532226562501	-829.5494384765627	-315.7871704101563	331.5947265625001	-731.6813964843751	-402.5327453613282	266.0615539550782	-690.1329956054689	-357.1771545410157	261.5309753417969	-701.2155151367189	-356.6381225585938	208.7747497558594	-729.5487670898439	-444.7407226562501	102.5223846435547	-697.2285156250001	-408.3641662597657	99.39661407470706	-773.5327758789065	-497.5926208496095	53.12516403198244	-766.3978271484376	-284.2551574707032	48.36957168579103	-717.2523193359376	-296.2850646972657	51.2429542541504	-672.0769042968751	-346.6235351562501	33.88013458251954	-634.7490234375001	
252	1.255	-108.0415191650391	1648.368286132813	-872.7974243164065	-262.8119201660157	1684.365966796875	-945.738952636719	-271.8683166503907	1675.619995117188	-800.3468017578127	-402.4338989257814	1533.292846679688	-873.1040649414065	-432.059295654297	1237.679565429688	-877.1730957031252	-271.5882568359376	1473.677856445313	-883.724548339844	-334.4571228027344	1524.927612304688	-1046.007080078125	-381.2559509277344	1354.392456054688	-1216.460693359375	-335.8814086914063	1333.19873046875	-1210.104370117188	-361.6446838378907	1297.419067382813	-1252.0703125	-340.3771667480469	1238.446899414063	-1270.328857421875	-409.4183349609376	1200.693481445313	-1241.839599609375	-268.7275390625001	1041.033813476563	-1067.566284179688	-220.5429687500001	1015.217102050781	-1117.5849609375	-251.3094635009766	997.5676269531252	-1008.73193359375	-313.2504882812501	1503.231811523438	-715.7379150390626	-302.6703186035157	1341.7822265625	-557.5784912109376	-278.3465576171876	1303.157470703125	-575.1917724609376	-294.5753784179688	1283.186767578125	-521.0952758789064	-277.6395874023438	1210.583251953125	-499.4611206054689	-357.7936706542969	1184.710815429688	-500.3989868164064	-274.1756286621094	989.5486450195315	-668.1128540039064	-213.5245971679688	969.8235473632815	-634.6795654296876	-243.193588256836	972.4688110351565	-733.4224853515626	-267.3167114257813	1042.423583984375	-1004.862121582031	-268.5044555664063	1045.396484375	-752.8759765625001	-436.1284790039064	1100.221435546875	-880.412292480469	-449.8348388671876	1070.641235351563	-908.0960693359377	-447.6122131347657	1069.638793945313	-850.9976196289065	-332.1982116699219	729.6094970703126	-1082.270263671875	-309.5805053710938	647.5786132812501	-1079.149536132813	-264.8469238281251	646.4841918945314	-1056.290283203125	-343.7993469238282	599.9818725585939	-1066.808837890625	-342.6907958984376	537.9270019531251	-1064.487670898438	-334.3963317871094	513.9041748046876	-946.9774169921877	-330.9834899902344	339.6305541992188	-1018.725280761719	-377.2788696289063	310.9721374511719	-1089.379638671875	-343.8576354980469	299.0342102050782	-1060.68994140625	-365.3677673339844	218.7134704589844	-1041.787963867188	-465.1849670410157	97.3205261230469	-1079.597778320313	-421.4608764648439	101.4751510620117	-1009.299133300781	-509.5544738769532	51.05871963500978	-1028.650512695313	-299.6679382324219	44.61285018920899	-1051.980712890625	-300.6226501464844	48.95507431030275	-1102.299682617188	-347.4833068847657	32.19476318359376	-1143.925415039063	-331.9121704101563	782.547058105469	-690.5196533203126	-299.7225036621094	723.4459228515626	-685.6355590820314	-267.4403991699219	722.3914184570314	-693.1795654296876	-336.0380554199219	646.1448974609376	-701.9060668945314	-331.9786376953126	512.1093750000001	-709.9908447265626	-336.4107055664063	509.356903076172	-829.5892333984377	-316.0857238769532	331.4400329589844	-731.8031005859376	-402.7061157226564	265.6864929199219	-690.1791381835939	-357.4649353027344	261.2299194335938	-701.3188476562501	-356.7590637207032	208.6674041748047	-729.6885986328126	-444.8432922363282	102.2376327514649	-697.3936767578126	-408.4682922363282	99.18646240234378	-773.7073364257815	-497.664764404297	52.79392242431642	-766.5029296875001	-284.2867126464844	48.34349441528322	-717.2983398437501	-296.3384704589844	51.31272506713869	-672.1297607421876	-346.6121520996094	33.90318679809571	-634.7673950195314	
253	1.26	-107.4836883544922	1646.975341796875	-872.7261352539065	-262.2893371582032	1683.860961914063	-945.6188964843752	-271.1398315429688	1674.835693359375	-800.0801391601565	-402.3957519531251	1533.369262695313	-872.990173339844	-432.869842529297	1237.950439453125	-877.174987792969	-271.7924499511719	1473.099365234375	-883.6391601562502	-334.5323486328126	1524.803833007813	-1045.899658203125	-382.0168762207032	1354.30224609375	-1216.322021484375	-336.5016174316407	1333.017333984375	-1210.218505859375	-362.6192321777344	1297.274780273438	-1251.91259765625	-341.4530944824219	1238.250854492188	-1270.247924804688	-410.5891418457032	1200.711791992188	-1241.633056640625	-269.8859558105469	1040.826538085938	-1067.335815429688	-221.8004302978516	1015.020812988281	-1117.31201171875	-252.3445739746094	997.384704589844	-1008.579040527344	-313.3137817382813	1502.83349609375	-715.7147827148439	-303.0605468750001	1341.493041992188	-557.4241333007814	-278.9301147460938	1302.59765625	-575.1529541015626	-295.1686401367188	1282.83349609375	-520.9867553710939	-278.4388427734376	1210.054443359375	-499.5521850585939	-358.4621276855469	1184.478881835938	-500.2859497070314	-275.0351562500001	989.5728149414065	-668.1099243164064	-214.8208007812501	969.3917236328127	-634.9496459960939	-244.3753509521485	972.3772583007815	-733.5546875000001	-268.4772949218751	1042.09130859375	-1004.943359375	-269.8619079589844	1045.079345703125	-752.9920654296876	-437.4327392578126	1099.734985351563	-880.5780029296877	-451.0621032714845	1070.619140625	-908.0942382812502	-448.8780212402345	1069.558227539063	-851.0869750976565	-332.9051513671876	729.2325439453126	-1082.30908203125	-310.2442626953126	647.1494750976564	-1079.263549804688	-265.5134277343751	646.5248413085939	-1056.246948242188	-344.3383483886719	599.5453491210939	-1066.831909179688	-343.0706176757813	537.5457763671876	-1064.523315429688	-334.7689208984376	513.5754394531251	-947.0042114257815	-331.3360290527344	339.4894104003907	-1018.754943847656	-377.4996643066407	310.6739196777344	-1089.433349609375	-344.1398925781251	298.5285949707032	-1060.65869140625	-365.7674255371094	218.2814178466797	-1041.7392578125	-465.4122619628907	96.95036315917972	-1079.631225585938	-421.6436157226564	101.1786651611328	-1009.256896972656	-509.6837158203126	50.41696929931642	-1028.52783203125	-299.6587829589844	44.59251785278321	-1051.966918945313	-300.7027282714844	48.86361694335939	-1102.266479492188	-347.5717773437501	32.1502799987793	-1144.02783203125	-333.1008911132813	782.3878173828127	-690.5007934570314	-300.5556030273438	723.3448486328126	-685.4954833984376	-268.3214721679688	722.1493530273439	-693.1967163085939	-336.7847595214844	645.9710693359376	-701.8872070312501	-332.5521545410157	511.8824157714845	-709.9327392578126	-336.8917846679688	509.2371215820314	-829.592712402344	-316.4134216308594	331.2365722656251	-731.7836303710939	-402.7834777832032	265.1661376953126	-690.2726440429689	-357.7294616699219	261.0632324218751	-701.4503173828126	-356.9073181152344	208.5460052490235	-729.7980346679689	-444.932586669922	101.9334564208985	-697.5288696289064	-408.6207580566407	98.95084381103518	-773.8178710937502	-497.7284240722657	52.4485206604004	-766.5430297851564	-284.3566589355469	48.41745376586915	-717.3345947265626	-296.3648071289063	51.42008590698244	-672.1657104492189	-346.6491699218751	33.90001296997071	-634.7716064453126	
254	1.265	-106.7259674072266	1645.781494140625	-872.807312011719	-261.6326599121094	1683.290405273438	-945.4670410156252	-270.2952880859376	1674.271118164063	-799.985290527344	-402.3440551757814	1533.382202148438	-872.8222656250002	-433.888397216797	1237.876953125	-877.3533935546877	-272.0672912597657	1472.627075195313	-883.513610839844	-334.6767883300782	1524.648803710938	-1045.802856445313	-382.7153930664063	1354.194213867188	-1216.247192382813	-337.3860168457032	1332.84619140625	-1210.247314453125	-363.4737243652344	1297.108520507813	-1251.877807617188	-342.6367797851563	1237.967895507813	-1270.069702148438	-411.3352966308595	1200.26318359375	-1241.633544921875	-271.4455566406251	1040.421508789063	-1067.185668945313	-223.4595184326172	1014.622680664063	-1117.152954101563	-254.1936187744141	997.1040649414065	-1008.536193847656	-313.2669677734376	1502.609008789063	-715.5909423828126	-303.4281311035157	1341.156005859375	-557.3258666992189	-279.3368530273438	1302.358764648438	-574.9356079101564	-295.6510925292969	1282.507446289063	-520.7727661132814	-279.0147399902344	1209.599731445313	-499.4049377441407	-359.1182250976563	1184.512573242188	-500.0973510742189	-276.3512878417969	989.1639404296877	-668.0765991210939	-216.1330871582032	969.0787353515627	-634.7924804687501	-245.4754333496094	972.0650024414065	-733.7582397460939	-269.7649841308594	1041.737182617188	-1005.117065429688	-271.2580871582032	1044.835571289063	-752.9561157226564	-438.6987609863282	1099.472045898438	-880.756286621094	-452.585662841797	1070.302734375	-908.1699829101565	-450.553192138672	1069.266479492188	-851.185241699219	-333.7157287597657	728.8732299804689	-1082.379150390625	-310.9609375000001	646.8466186523439	-1079.29296875	-265.9162292480469	645.9501953125001	-1056.082275390625	-344.7286682128907	599.1709594726564	-1066.990600585938	-343.5550537109376	537.2650756835939	-1064.458862304688	-335.0833435058594	513.2632446289064	-947.078796386719	-331.7324523925782	339.2052612304688	-1018.773315429688	-377.8183898925782	310.3702087402344	-1089.453735351563	-344.5686035156251	298.1983642578126	-1060.721923828125	-366.0391845703126	217.9950103759766	-1041.72314453125	-465.614227294922	96.5507507324219	-1079.523681640625	-422.0456848144532	100.6730117797852	-1009.365478515625	-509.7964477539064	49.96839523315431	-1028.451049804688	-299.8190612792969	44.6401710510254	-1052.03466796875	-300.8537902832032	48.95981597900392	-1102.301147460938	-347.5520935058594	32.12015914916993	-1144.065307617188	-333.9652099609376	782.2652587890627	-690.5188598632814	-301.8060607910157	722.8560791015626	-685.7106323242189	-268.9886169433594	722.3255615234376	-693.1907958984376	-337.2935791015626	645.8904418945314	-701.8736572265626	-333.1887207031251	511.4732360839845	-710.0166015625001	-337.3721313476563	509.1121520996095	-829.634948730469	-316.7474060058594	330.9799499511719	-731.7567138671876	-403.0083923339845	264.9650573730469	-690.3619384765626	-357.9584960937501	260.8551635742188	-701.5071411132814	-357.0719604492188	208.4088287353516	-729.9523925781251	-445.0071105957032	101.7114562988282	-697.6259155273439	-408.6895751953126	98.76017761230472	-773.931335449219	-497.6748046875001	51.95650482177736	-766.7154541015626	-284.3457336425782	48.42111968994142	-717.3251953125001	-296.4041442871094	51.43322372436525	-672.2432250976564	-346.6635131835938	33.92562484741212	-634.7697753906251	
